# xmcd
#
# Track frame offsets:
#	150
#	18399
#	29146
#	50791
#	66039
#	84250
#	101463
#	118623
#	138079
#	154304
#	172020
#	189824
#	206669
#	221864
#	242588
#	263839
#	278793
#	290703
#	306620
#	333263
#
# Disc length: 4673 seconds
#
# Revision: 2
# Processed by: cddbd v1.5.2PL0 Copyright (c) Steve Scherf et al.
# Submitted via: audiograbber 1.83.01
#
DISCID=30123f14
DTITLE=Various Artist - Humo's Top 2008  CD2
DYEAR=2008
DGENRE=Alternative Rock
TTITLE0=Verve - Love Is Noise
TTITLE1=Cold War Kids - Something Is Not Right With Me
TTITLE2=Johnny Berlin - Four
TTITLE3=Black Box Revelation - Gravity Blues
TTITLE4=Nick Cave and The Bad Seeds - More News From Nowhere
TTITLE5=Hooverphonic - 50 Watt
TTITLE6=Jasper Erkens - Crazy
TTITLE7=MGMT - Time To Pretend
TTITLE8=Bloc Party - Flux
TTITLE9=dEUS - The Architect
TTITLE10=Burial - Archangel
TTITLE11=Blood Red Shoes - I Wish I Was Someone Better
TTITLE12=Santogold - Les Artistes
TTITLE13=Gutter Twins - Idle Hands
TTITLE14=Mintzkov - Violetta
TTITLE15=A Brand - Time
TTITLE16=CPEX - Geft Da Kaske Na Is Hier
TTITLE17=Hold Steady - Sequestered In Memphis
TTITLE18=Mariee Sioux - Buried In Teeth
TTITLE19=Balthazar - Bathroom Lovin' Situations
EXTD=
EXTT0=
EXTT1=
EXTT2=
EXTT3=
EXTT4=
EXTT5=
EXTT6=
EXTT7=
EXTT8=
EXTT9=
EXTT10=
EXTT11=
EXTT12=
EXTT13=
EXTT14=
EXTT15=
EXTT16=
EXTT17=
EXTT18=
EXTT19=
PLAYORDER=
